<?xml version="1.0" encoding="UTF-8"?>
<!DOCTYPE svg PUBLIC "-//W3C//DTD SVG 1.1//EN" "http://www.w3.org/Graphics/SVG/1.1/DTD/svg11.dtd">
<!-- Creator: CorelDRAW X7 -->
<svg xmlns="http://www.w3.org/2000/svg" xml:space="preserve" width="149.5mm" height="25.2304mm" version="1.1" style="shape-rendering:geometricPrecision; text-rendering:geometricPrecision; image-rendering:optimizeQuality; fill-rule:evenodd; clip-rule:evenodd"
viewBox="0 0 14950 2523"
 xmlns:xlink="http://www.w3.org/1999/xlink">
 <defs>
  <style type="text/css">
   <![CDATA[
    .fil0 {fill:#003D4D;fill-rule:nonzero}
   ]]>
  </style>
 </defs>
 <g id="Capa_x0020_1">
  <metadata id="CorelCorpID_0Corel-Layer"/>
  <path class="fil0" d="M0 42l1412 0c235,0 416,58 541,175 126,116 189,260 189,432 0,144 -45,268 -134,371 -61,69 -148,124 -263,163 175,42 304,115 387,217 82,103 123,232 123,387 0,127 -29,241 -88,342 -59,101 -139,180 -241,239 -63,37 -159,64 -286,80 -170,22 -283,34 -338,34l-1302 0 0 -2440zm761 957l327 0c118,0 200,-21 246,-61 47,-41 69,-99 69,-176 0,-71 -22,-126 -69,-166 -46,-40 -126,-60 -240,-60l-333 0 0 463zm0 958l384 0c130,0 222,-23 275,-69 53,-46 80,-107 80,-185 0,-72 -26,-130 -79,-174 -53,-44 -145,-66 -277,-66l-383 0 0 494z"/>
  <polygon class="fil0" points="2649,42 4669,42 4669,562 3404,562 3404,950 4577,950 4577,1448 3404,1448 3404,1929 4706,1929 4706,2482 2649,2482 "/>
  <path class="fil0" d="M5122 2482l0 -2440 1256 0c233,0 412,19 534,60 124,40 223,113 298,222 76,108 114,240 114,395 0,135 -29,252 -87,350 -58,99 -137,178 -238,239 -65,39 -153,71 -265,96 90,31 156,61 197,91 27,20 68,62 120,128 53,65 88,115 106,151l365 708 -852 0 -403 -746c-51,-96 -97,-159 -137,-188 -54,-38 -116,-57 -185,-57l-66 0 0 991 -757 0zm757 -1452l318 0c34,0 101,-11 199,-33 50,-10 91,-36 123,-77 31,-41 47,-88 47,-141 0,-79 -25,-139 -75,-181 -50,-43 -143,-64 -281,-64l-331 0 0 496z"/>
  <polygon class="fil0" points="7562,42 9853,42 9853,644 9084,644 9084,2482 8330,2482 8330,644 7562,644 "/>
  <path class="fil0" d="M9983 1263c0,-398 111,-709 333,-930 222,-222 531,-333 927,-333 406,0 719,109 939,327 219,218 330,523 330,916 0,285 -49,519 -145,702 -96,182 -234,324 -416,426 -181,101 -407,152 -678,152 -275,0 -503,-44 -683,-131 -180,-88 -326,-227 -439,-417 -112,-189 -168,-427 -168,-712zm731 270c106,199 316,334 557,334 240,0 449,-134 556,-332l-547 0 -208 -306 208 -293 548 0c-107,-198 -316,-333 -557,-333 -241,0 -451,135 -557,333 -93,190 -86,423 0,597z"/>
  <polygon class="fil0" points="12658,42 14950,42 14950,644 14181,644 14181,2482 13427,2482 13427,644 12658,644 "/>
 </g>
</svg>
