<?xml version="1.0" encoding="utf-8"?>
<!-- Generator: Adobe Illustrator 19.2.1, SVG Export Plug-In . SVG Version: 6.00 Build 0)  -->
<svg version="1.1" id="Capa_1" xmlns="http://www.w3.org/2000/svg" xmlns:xlink="http://www.w3.org/1999/xlink" x="0px" y="0px"
	 viewBox="0 0 271.2 276.7" style="enable-background:new 0 0 271.2 276.7;" xml:space="preserve">
<style type="text/css">
	.st0{fill:#FFFFFF;}
	.st1{fill:#C9D2DB;}
	.st2{fill:#D88D00;}
</style>
<path class="st0" d="M90.3,61.6c0.6,0,1.3,0,1.9,0h87.5c0.4,0,0.7,0,1.1,0c8.4,0.4,15,7.5,14.9,15.9c0,21.9,0,43.8,0,65.8
	c0,2.9-1.8,4.6-4.3,4.3c-1.8-0.2-3.2-1.7-3.3-3.5c0-0.4,0-0.9,0-1.3c0-21.6-0.1-43.2,0-64.8c0.2-4.7-3.5-8.6-8.2-8.7
	c-0.2,0-0.3,0-0.5,0c-29.2,0.1-58.3,0.1-87.5,0c-4.6-0.1-8.5,3.5-8.6,8.2c0,0.1,0,0.3,0,0.4c0.1,21.6,0,43.3,0,64.9
	c0,0.6,0,1.2-0.1,1.8c-0.4,2.1-2.4,3.4-4.5,3c-1.6-0.3-2.8-1.6-3-3.2c0-0.4-0.1-0.8-0.1-1.2c0-21.8,0-43.7,0-65.5
	c-0.2-7.4,4.8-13.9,12-15.6C88.5,61.8,89.5,61.7,90.3,61.6z"/>
<g>
	<path class="st1" d="M90.3,61.6c0-0.1,0-0.1,0-0.2h90.5c0,0.1,0,0.1,0,0.2c-0.4,0-0.7,0-1.1,0H92.2C91.6,61.6,91,61.6,90.3,61.6z"
		/>
	<path class="st0" d="M79.8,177c0,0.2-0.1,0.4-0.1,0.5c-0.1,3.4-1.8,5-5.2,4.2c-3.8-0.9-7.5-2.3-11.3-3.5c-1.6-0.5-3.2-1.3-4.8-1.9
		c-0.3-0.1-0.5-0.2-0.7-0.4c-1.6-1-2.9-2.2-2.7-4.3s1.6-2.8,3.3-3.4c5-1.9,10-3.7,15-5.5c0.8-0.3,1.7-0.4,2.6-0.5
		c1.8-0.2,3.4,1.2,3.6,3c0.2,1.3,0.2,2.7,0.3,4c4.7,0.2,9.7-3.6,11.2-8.5c0.4-1.4,0.6-2.8,0.6-4.3c0-7.2,0-14.4,0-21.6
		c0-2.8,1.7-4.5,4.3-4.3c1.8,0.1,3.2,1.4,3.3,3.2c0,8.6,0.5,17.3-0.2,25.9c-0.7,9.4-8.6,16.5-18,17.3C80.7,176.9,80.3,177,79.8,177z
		"/>
	<path class="st0" d="M191.6,169.2c0-0.9,0-1.8,0-2.7c0-3.5,2.2-5.2,5.5-4.1c3.9,1.3,7.8,2.8,11.7,4.2c1.4,0.5,2.7,1,4,1.5
		c1.7,0.7,3.3,1.6,3.4,3.6c0,1.9-1.2,3.7-3,4.3c-3.5,1.5-7.2,2.9-10.8,4.2c-1.9,0.6-3.8,1.2-5.8,1.5c-0.9,0.1-1.8,0.1-2.7-0.1
		c-1.4-0.3-2.4-1.5-2.4-2.9c0-0.5,0-1,0-1.5c-1.5-0.3-2.9-0.4-4.3-0.7c-9-2.2-15.3-10.1-15.3-19.4c0-7.5,0-15,0-22.4
		c-0.2-2.1,1.4-4,3.5-4.2c0.1,0,0.2,0,0.3,0c2.3,0,3.9,1.7,3.9,4.2c0,7.4,0,14.9,0,22.3c0,6.4,4.9,11.6,11.2,12.2
		C191.1,169.2,191.3,169.2,191.6,169.2z"/>
	<path class="st2" d="M112.7,167c0,10.7,0,21.3,0,31.9c0,0.6,0,1.3-0.2,1.9c-0.5,1.7-2.1,2.8-3.9,2.7c-1.9-0.1-3.4-1.6-3.6-3.5
		c0-0.3,0-0.7,0-1c0-21.4,0-42.8,0-64.2c0-2.9,1.8-4.6,4.3-4.4c1.8,0.2,3.2,1.6,3.3,3.4c0,0.5,0,1,0,1.4
		C112.7,145.8,112.7,156.4,112.7,167z"/>
	<path class="st2" d="M166.2,166.9c0,10.8,0,21.6,0,32.4c0,3-2.5,4.9-5.1,4c-1.4-0.5-2.5-1.8-2.6-3.3c0-0.3,0-0.6,0-0.8
		c0-21.4,0-42.9,0-64.3c0-2.8,1.7-4.5,4.3-4.3c1.8,0.1,3.3,1.6,3.4,3.4c0.1,0.8,0,1.6,0,2.4C166.2,146.5,166.2,156.7,166.2,166.9z"
		/>
</g>
</svg>
