<?xml version="1.0" encoding="utf-8"?>
<!-- Generator: Adobe Illustrator 19.2.1, SVG Export Plug-In . SVG Version: 6.00 Build 0)  -->
<svg version="1.1" id="Capa_1" xmlns="http://www.w3.org/2000/svg" xmlns:xlink="http://www.w3.org/1999/xlink" x="0px" y="0px"
	 viewBox="0 0 960 560" style="enable-background:new 0 0 960 560;" xml:space="preserve">
<style type="text/css">
	.st0{fill:#FFFFFF;}
	.st1{fill:#C9D2DB;}
</style>
<path class="st0" d="M602.4,353v-10.3c0.9-0.2,1.9-0.3,2.8-0.4c1.1,0,2,0.8,2.1,1.8c0.2,1.4,0.2,2.8-0.1,4.2
	c-0.4,1.9-1.8,2.4-3.6,1.4c-0.4,1.1,0.4,2.4-0.8,3.3L602.4,353L602.4,353z M606.4,346.3c0-0.7-0.1-1.4-0.3-2.1
	c-0.2-0.4-0.6-0.7-1-0.8c-0.5,0-0.9,0.3-1.2,0.7c-0.1,1.4-0.1,2.9,0,4.3c0.3,0.4,0.7,0.7,1.2,0.7c0.4-0.1,0.8-0.4,1-0.8
	C606.2,347.7,606.3,347,606.4,346.3L606.4,346.3z"/>
<path class="st1" d="M284.6,204.2c0-0.1,0-0.1,0-0.2h90.5c0,0.1,0,0.1,0,0.2c-0.4,0-0.7,0-1.1,0h-87.5
	C285.9,204.2,285.2,204.2,284.6,204.2z"/>
<path class="st0" d="M284.6,204.2c0.6,0,1.3,0,1.9,0H374c0.4,0,0.7,0,1.1,0c8.4,0.4,15,7.5,14.9,15.9c0,21.9,0,43.8,0,65.8
	c0,2.8-1.8,4.6-4.3,4.3c-1.8-0.2-3.2-1.7-3.3-3.5c0-0.4,0-0.9,0-1.3c0-21.6-0.1-43.2,0-64.8c0.2-4.7-3.5-8.6-8.2-8.7
	c-0.2,0-0.3,0-0.5,0c-29.2,0.1-58.3,0.1-87.5,0c-4.6-0.1-8.5,3.5-8.6,8.2c0,0.1,0,0.3,0,0.4c0.1,21.6,0,43.3,0,64.9
	c0,0.6,0,1.2-0.1,1.8c-0.4,2.1-2.4,3.4-4.5,3c-1.6-0.3-2.8-1.6-3-3.2c0-0.4-0.1-0.8-0.1-1.2c0-21.8,0-43.7,0-65.5
	c-0.2-7.4,4.8-13.9,12-15.6C282.7,204.4,283.7,204.3,284.6,204.2z"/>
<path class="st0" d="M274.1,319.6c0,0.2-0.1,0.3-0.1,0.5c-0.1,3.4-1.8,5-5.2,4.2c-3.8-0.9-7.5-2.3-11.3-3.5
	c-1.6-0.5-3.2-1.3-4.8-1.9c-0.3-0.1-0.5-0.2-0.7-0.4c-1.6-1-2.9-2.2-2.7-4.3s1.6-2.8,3.3-3.4c5-1.9,10-3.7,15-5.5
	c0.8-0.3,1.7-0.4,2.6-0.5c1.8-0.2,3.4,1.2,3.6,3c0.2,1.3,0.2,2.7,0.3,4c4.7,0.2,9.7-3.6,11.2-8.5c0.4-1.4,0.6-2.8,0.6-4.3
	c0-7.2,0-14.4,0-21.6c0-2.8,1.7-4.5,4.3-4.3c1.8,0.1,3.2,1.4,3.3,3.2c0,8.6,0.5,17.3-0.2,25.9c-0.7,9.4-8.6,16.5-18,17.3
	C274.9,319.5,274.5,319.6,274.1,319.6z"/>
<path class="st0" d="M385.8,311.8c0-0.9,0-1.8,0-2.7c0-3.5,2.2-5.2,5.5-4.1c3.9,1.3,7.8,2.8,11.7,4.2c1.4,0.5,2.7,1,4,1.5
	c1.7,0.7,3.3,1.6,3.4,3.6c0,1.9-1.2,3.7-3,4.3c-3.5,1.5-7.2,2.9-10.8,4.2c-1.9,0.6-3.8,1.2-5.8,1.5c-0.9,0.1-1.8,0.1-2.7-0.1
	c-1.4-0.3-2.4-1.5-2.4-2.9c0-0.5,0-1,0-1.5c-1.5-0.3-2.9-0.4-4.3-0.7c-9-2.2-15.3-10.1-15.3-19.3c0-7.5,0-15,0-22.4
	c-0.2-2.1,1.4-4,3.5-4.2c0.1,0,0.2,0,0.3,0c2.3,0,3.9,1.7,3.9,4.2c0,7.4,0,14.9,0,22.3c0,6.4,4.9,11.6,11.2,12.2
	C385.3,311.8,385.5,311.8,385.8,311.8z"/>
<path class="st0" d="M307,309.6c0,10.7,0,21.3,0,31.9c0,0.6,0,1.3-0.2,1.9c-0.5,1.7-2.1,2.8-3.9,2.7c-1.9-0.1-3.4-1.6-3.6-3.5
	c0-0.3,0-0.7,0-1c0-21.4,0-42.8,0-64.2c0-2.9,1.8-4.6,4.3-4.4c1.8,0.2,3.2,1.6,3.3,3.4c0,0.5,0,1,0,1.4C307,288.4,307,299,307,309.6
	z"/>
<path class="st0" d="M360.5,309.5c0,10.8,0,21.6,0,32.4c0,3-2.5,4.9-5.1,4c-1.4-0.5-2.5-1.8-2.6-3.3c0-0.3,0-0.6,0-0.8
	c0-21.4,0-42.9,0-64.3c0-2.8,1.7-4.5,4.3-4.3c1.8,0.1,3.3,1.6,3.4,3.4c0.1,0.8,0,1.6,0,2.4C360.5,289.1,360.5,299.3,360.5,309.5z"/>
<path class="st0" d="M621.7,314.3l0.9,15.6h-6.9v-30h7.2l5.4,16.4h0.2l-0.9-16.5h7v30.1c-2.3,0-4.6,0-6.9,0
	c-0.3-0.2-0.6-0.5-0.7-0.9c-1.6-4.6-3.2-9.2-4.8-13.8l-0.3-1L621.7,314.3z"/>
<path class="st0" d="M507.2,315c2.7,0.7,3.7,2.4,3.6,4.9c0,2.3,0.1,4.6,0.3,6.8c0.2,0.8,0.5,1.5,0.9,2.2c0.1,0.3,0.2,0.6,0.4,1h-7.1
	c-1.3,0-1.6-0.8-1.6-1.9c0-2,0-4.1,0-6.1c0-3.4-1-4.2-4.5-3.6v11.6h-7.2v-30c0.3,0,0.6-0.1,0.9-0.1c3.2,0,6.4,0,9.6,0
	c1,0,2.1,0.1,3.1,0.3c3.6,0.9,5.6,3.7,5.5,7.7C511,310.7,510.4,313.4,507.2,315z M499.3,312.7c1.5,0.1,3.1,0.3,3.9-1.3
	c0.9-1.7,0.8-3.8-0.2-5.4c-0.8-1.4-2.3-1.2-3.7-1.3L499.3,312.7L499.3,312.7z"/>
<path class="st0" d="M697.9,314.2c0,2.4,0,4.7,0,7.1c0,5.4-2.9,8.6-8.2,9.2c-1.3,0.1-2.6,0.1-3.8,0c-4.4-0.5-7.2-2.9-7.5-8.5
	c-0.3-5.2-0.1-10.4,0-15.6c-0.1-2.7,1.6-5.1,4.1-6.1c3.8-1.8,8.3-1.7,12,0.3c2.3,1.1,3.7,3.5,3.6,6.1
	C697.9,309.1,697.9,311.7,697.9,314.2z M690.5,314.8c0-2.5,0-5,0-7.5c0.2-1.4-0.8-2.6-2.2-2.8c-0.1,0-0.2,0-0.4,0
	c-1.6,0-2.5,1.1-2.5,2.8c0,4.9,0,9.8,0,14.7c0,1.8,1,3,2.6,2.9s2.5-1.1,2.5-2.9C690.6,319.6,690.5,317.2,690.5,314.8L690.5,314.8z"
	/>
<path class="st0" d="M514.7,314.2c0-2.2,0-4.4,0-6.6c0-4.7,1.9-7.1,6.5-8.1c3.2-0.9,6.7-0.5,9.7,1.1c2.2,1.1,3.6,3.4,3.5,5.8
	c0.1,5.2,0.1,10.3,0,15.5c-0.1,5.2-3.2,8.1-8.4,8.6c-1.2,0.1-2.5,0.1-3.7,0c-4.6-0.5-7.1-3.2-7.5-8.7
	C514.6,319.3,514.8,316.8,514.7,314.2L514.7,314.2L514.7,314.2z M527.1,314.6c0-2.5,0-5,0-7.4c0.1-1.4-0.9-2.6-2.2-2.8
	c-0.1,0-0.2,0-0.4,0c-1.6,0-2.5,1.1-2.5,2.9c0,4.9,0,9.8,0,14.7c0,1.8,1,3,2.6,2.9c1.6,0,2.5-1.1,2.5-2.9
	C527.1,319.6,527.1,317.1,527.1,314.6L527.1,314.6z"/>
<path class="st0" d="M570.9,299.8h7.3l3.4,19.7h0.3l3.6-19.8h7.3c-0.5,2.5-1,4.9-1.6,7.3c-1.6,7.1-3.2,14.3-4.7,21.4
	c-0.2,1.1-0.6,1.6-1.8,1.5c-2.1-0.1-4.2-0.1-6.2,0c-0.5,0.1-1-0.2-1.1-0.7c0-0.1,0-0.1,0-0.2C575.2,319.3,573.1,309.6,570.9,299.8z"
	/>
<path class="st0" d="M658.3,299.8h16.6v5.5h-9.4v5.9h8.8v6.3h-8.8v6.5h9.4v5.9h-16.6V299.8z"/>
<path class="st0" d="M612.4,299.8v5.5H603v5.8h8.8v6.3H603v6.4h9.4v5.9h-16.7v-30L612.4,299.8L612.4,299.8z"/>
<path class="st0" d="M423.2,299.8h16.7v5.6h-9.4v5.4h8.5v6h-8.5v13.1h-7.2L423.2,299.8L423.2,299.8z"/>
<path class="st0" d="M484.1,329.9h-7.3v-24.1h-5.6v-6h18.2v5.9h-5.2V329.9L484.1,329.9z"/>
<path class="st0" d="M643,305.7h-5.6v-5.9h18.2v5.8h-5.2v24.2H643V305.7z"/>
<path class="st0" d="M460.9,299.8v24.1h8.5v6h-15.6v-30.1H460.9z"/>
<path class="st0" d="M450.3,329.9c-0.3,0-0.6,0-0.9,0h-6.3v-30.1h7.2L450.3,329.9L450.3,329.9z"/>
<path class="st0" d="M549.1,310.1v-7.4h2.7v23.6h-2.6v-1.7c-0.1,0.1-0.3,0.2-0.4,0.3c-1.4,2.1-4.3,2.7-6.4,1.2
	c-0.6-0.4-1.2-1-1.5-1.7c-0.7-1.5-1.2-3-1.3-4.7c-0.5-2.8-0.2-5.7,0.8-8.4c1.1-2.8,3.9-4,6.4-2.9
	C547.7,308.9,548.4,309.5,549.1,310.1z M549.5,317.5c-0.2-1.6-0.5-3.2-0.9-4.7c-0.3-1.5-1.6-2.4-3.1-2.3c-1.3,0.1-2.2,0.9-2.6,2.5
	c-0.7,2.9-0.7,6,0,8.9c0.1,1.5,1.4,2.6,2.9,2.5c1.5,0.1,2.8-1,3-2.5C549.1,320.6,549.2,319.1,549.5,317.5L549.5,317.5z"/>
<path class="st0" d="M564.5,320.6h2.5c0.3,2.9-1.6,5.5-4.5,6.1c-3.2,0.7-5.9-0.6-6.8-3.5c-1.2-3.7-1.2-7.7,0.1-11.3
	c0.9-2.8,3-3.9,6.1-3.7c2.7,0.2,4.3,1.5,4.9,4.4c0.3,1.7,0.5,3.5,0.6,5.3H558c-0.3,1.9,0,3.8,0.8,5.5c0.5,1,1.6,1.5,2.7,1.4
	c1.1,0,2.1-0.7,2.4-1.8C564.2,322.2,564.3,321.4,564.5,320.6z M564.4,315.6c0-1.9,0.1-3.7-1.6-4.9c-1-0.7-2.2-0.6-3.1,0.1
	c-1.5,1.2-1.6,3-1.6,4.7L564.4,315.6L564.4,315.6z"/>
<path class="st0" d="M622.3,350.2c0-1.5,0-2.9,0-4.4c0-2.3,0-4.5,0-6.8c0-0.7,0.2-1,0.9-1c2.1,0,4.2,0,6.3,0s3.4,1.1,3.6,2.8
	c0.1,1.2-0.6,2.4-1.7,2.9c1.9,1,2.6,2.1,2.3,3.7c-0.3,1.7-1.7,2.8-3.4,2.7C627.7,350.3,625.1,350.2,622.3,350.2z M626.2,345.2
	c-0.1,0.6-0.1,1.2,0,1.7c0.1,0.3,0.3,0.6,0.7,0.7c0.7,0.1,1.3,0.1,2-0.1c0.5-0.2,0.9-0.6,1-1.1c-0.1-0.5-0.5-1-1-1.2
	C628,345.2,627.1,345.2,626.2,345.2L626.2,345.2z M626.3,340.7c-0.2,2.1-0.2,2.2,1,2.2c1.6,0,2.3-0.4,2.2-1.3
	C629.4,340.6,628.5,340.3,626.3,340.7L626.3,340.7z"/>
<path class="st0" d="M685.4,344.2c0,4-2.3,6.4-6.3,6.4s-6.5-2.3-6.5-6.3s2.3-6.4,6.4-6.4C683.2,337.9,685.4,340.1,685.4,344.2z
	 M681.8,342.5c-0.7-1.3-2.3-2-3.7-1.5c-1.5,0.5-2.3,2-2.1,3.5c0.2,1.5,1.4,2.6,2.9,2.7c1.2,0.1,2.3-0.6,2.7-1.7
	c-1.4,0.1-3.3,0.4-3.3-1.5C678.4,342.2,680.4,342.5,681.8,342.5z"/>
<path class="st0" d="M652,345.5v4.8h-3.8v-12.4c2.9,0.1,5.9,0.2,8.8,0.5c1.2,0.2,2.1,1.2,2.2,2.4c0.3,1.3-0.2,2.7-1.3,3.5
	c-0.3,0.2-0.8,0.4-1.2,0.7c2,1.3,2.4,3.5,3.7,5.5c-1.5,0-2.7,0-3.9,0c-0.3-0.1-0.6-0.3-0.8-0.6c-0.6-1.1-1.1-2.2-1.8-3.2
	c-0.4-0.5-0.9-0.9-1.5-1.3L652,345.5z M652.1,343c0.8,0,1.7-0.1,2.5-0.3c0.4-0.3,0.7-0.7,0.8-1.2c-0.1-0.5-0.5-0.9-1-1
	c-0.8-0.1-1.5-0.1-2.3,0V343z"/>
<path class="st0" d="M646,350.3h-10.2V338h8.2c2.2,0,2.4,0.2,1.8,2.6h-6.1v2h4.3c1.5,0,1.5,0,1.5,1.6c0,0.3,0,0.5-0.1,0.9h-5.8v2.4
	h6.3L646,350.3L646,350.3z"/>
<path class="st0" d="M671.9,338.1v3h-3.7v9.2h-3.8v-9.2h-3.8v-3L671.9,338.1L671.9,338.1z"/>
<path class="st0" d="M697.6,338.1v3h-3.8v9.2H690v-9.2h-3.8v-3L697.6,338.1L697.6,338.1z"/>
<path class="st0" d="M589.9,342.9v-2.7l1.2-0.1v9.8c-0.9,0.2-1.9,0.4-2.9,0.5c-1,0.1-1.9-0.6-2-1.6c-0.2-1.4-0.3-2.9-0.1-4.4
	C586.5,342.4,587.7,342,589.9,342.9z M587.1,346.3c0.1,0.7,0.2,1.5,0.4,2.2c0.2,0.4,0.6,0.6,1.1,0.7c0.4,0,0.8-0.2,1-0.6
	c0.6-1.4,0.6-3.1-0.1-4.5c-0.3-0.4-0.7-0.6-1.1-0.6c-0.4,0.1-0.8,0.4-0.9,0.7C587.3,344.9,587.2,345.6,587.1,346.3L587.1,346.3z"/>
<path class="st0" d="M560.5,340.1h1.2v2.8c2.6-1,3.9-0.2,3.9,2.6c0,1.1-0.1,2.1-0.3,3.2c-0.2,1.1-1.2,1.8-2.3,1.6
	c-0.5-0.1-0.9-0.3-1.2-0.6l-1.3,0.6V340.1L560.5,340.1z M564.5,346.4c0-0.7-0.1-1.3-0.3-2c-0.2-0.4-0.5-0.8-1-0.9
	c-0.5,0-1,0.3-1.2,0.8c-0.1,1.4-0.1,2.8,0,4.2c0.3,0.4,0.7,0.7,1.2,0.7c0.4-0.1,0.8-0.4,1-0.8C564.3,347.8,564.5,347.1,564.5,346.4
	L564.5,346.4z"/>
<path class="st0" d="M579.9,344.8c-0.1-1.6,0.7-2.4,2.3-2.5s2.3,0.7,2.3,2.2c0,1,0,2,0,3c0,0.8,0.3,1.6,0.4,2.7l-2-0.3
	c-0.1,0.1-0.3,0.2-0.4,0.3c-0.9,0.6-2.2,0.3-2.7-0.7c0,0,0,0,0-0.1c-0.6-1.1-0.2-2.6,1-3.2c0.5-0.2,1-0.4,1.6-0.5
	c0.6-0.2,1.2-0.5,1-1.2c-0.1-0.4-0.4-0.8-0.8-1c-0.5-0.3-1.1,0-1.4,0.5c0,0.1-0.1,0.2-0.1,0.3C580.9,345,580.5,345,579.9,344.8z
	 M583.4,346.2c-0.6,0.1-1.3,0.4-1.8,0.7c-0.4,0.5-0.5,1.1-0.5,1.8c0.2,0.4,0.5,0.6,0.9,0.7c0.6-0.2,1-0.6,1.4-1.1
	C583.4,347.6,583.5,346.9,583.4,346.2L583.4,346.2z"/>
<path class="st0" d="M554.2,344.8c0-1.7,0.7-2.4,2.4-2.5c1.1-0.2,2.1,0.5,2.3,1.6c0,0.2,0,0.4,0,0.6c0,0.9,0,1.8,0,2.8
	c0,0.9,0.2,1.8,0.4,2.9l-1.9-0.4c-0.7,0.7-1.8,0.8-2.6,0.2c-0.5-0.6-0.8-1.4-0.8-2.2c0-0.9,0.6-1.6,1.5-1.8c0.5-0.1,1-0.3,1.5-0.5
	c0.4-0.2,0.7-0.6,0.8-1.1c-0.1-0.5-0.4-0.8-0.9-1c-0.5,0-1,0.2-1.3,0.6C555.2,344.8,555,345,554.2,344.8z M557.7,346.2
	c-0.6,0.1-1.2,0.3-1.7,0.7c-0.4,0.4-0.7,1-0.8,1.6c0.2,0.4,0.5,0.8,1,0.9c0.7,0.1,1.4-0.5,1.4-1.2c0,0,0,0,0-0.1
	C557.7,347.4,557.7,346.8,557.7,346.2L557.7,346.2z"/>
<path class="st0" d="M597.9,346.3c-0.2,0.9-0.3,1.8-0.6,2.5c-0.5,1.3-1.9,1.9-3.2,1.4c-0.6-0.2-1.1-0.7-1.4-1.3
	c-0.7-1.7-0.7-3.6,0-5.2c0.4-0.9,1.3-1.4,2.2-1.3c1-0.1,1.8,0.5,2.2,1.4C597.5,344.6,597.7,345.4,597.9,346.3z M593.6,346.2
	c0,0.7,0.1,1.4,0.3,2.1c0.2,0.5,0.7,0.9,1.2,1c0.5-0.1,1-0.5,1.1-1c0.1-1.4,0.1-2.8,0-4.1c-0.2-0.4-0.6-0.8-1.1-0.8
	c-0.5,0.1-0.9,0.4-1.1,0.8C593.8,344.8,593.6,345.5,593.6,346.2L593.6,346.2z"/>
<path class="st0" d="M614,346.4c-0.1,0.7-0.2,1.4-0.3,2.1c-0.2,1.1-1.3,1.9-2.4,1.9c-1.1,0.1-2.2-0.7-2.3-1.8
	c-0.2-1.4-0.2-2.8-0.1-4.2c0.2-1.2,1.2-2.1,2.5-2c1.2,0,2.2,0.8,2.5,2C613.8,345,613.9,345.7,614,346.4z M612.7,346.4
	c-0.1-0.8-0.2-1.5-0.4-2.2c-0.2-0.4-0.6-0.7-1-0.8c-0.5,0-0.9,0.3-1.2,0.7c-0.1,1.5-0.1,3,0,4.5c0.2,0.4,0.6,0.7,1,0.8
	c0.5-0.1,0.9-0.4,1.2-0.8C612.5,347.9,612.6,347.2,612.7,346.4L612.7,346.4z"/>
<path class="st0" d="M549.6,345.4v4.7h-1.2v-10c1.5,0,3.1,0,4.6,0c0.2,0.1,0.4,0.3,0.5,0.5c-0.2,0.2-0.4,0.4-0.6,0.5
	c-0.8,0-1.7,0-2.5,0c-0.4-0.1-0.7,0.1-0.8,0.5c0,0.1,0,0.2,0,0.3c0,0.8,0,1.5,0,2.4c1,0,2,0,2.9,0c0.3-0.1,0.6,0,0.8,0.2
	s0,0.6-0.2,0.8c-0.2,0.1-0.3,0.1-0.5,0C551.6,345.4,550.7,345.4,549.6,345.4z"/>
<path class="st0" d="M577.7,347.6h1c-0.2,1.8-1,2.8-2.4,2.8c-1.4,0-2.4-0.9-2.5-2.6c-0.1-1.2,0-2.4,0.2-3.5c0.2-1.2,1.4-2.1,2.7-1.8
	c1.3,0.2,1.9,0.9,2,2.4c-0.4,0.3-0.9,0.2-1.2-0.2c-0.1-0.1-0.2-0.3-0.2-0.4c-0.2-0.6-0.8-0.9-1.4-0.7c-0.3,0.1-0.6,0.4-0.7,0.7
	c-0.2,1.3-0.2,2.7-0.1,4c0,0.4,0.8,0.8,1.2,1.2c0.4-0.4,0.8-0.8,1.1-1.2C577.6,348,577.7,347.8,577.7,347.6z"/>
<path class="st0" d="M570.5,343.5c-2,0.3-2.3,0.6-2.3,2.4c0,1.4,0,2.8,0,4.2l-1.1,0.1c-0.1-0.1-0.1-0.3-0.2-0.4c0-2.1,0-4.2,0-6.3
	c0-0.3,0.1-0.6,0.4-0.9c0.4,0,0.7,0.2,1.1,0.3c0.6-0.2,1.1-0.4,1.7-0.5C570.3,342.8,570.4,343.1,570.5,343.5z"/>
<path class="st0" d="M615.1,350v-7.6l1.3,0.6l1.7-0.6l0.3,1c-2,0.4-2.2,0.7-2.2,2.6c0,1.1,0,2.2,0,3.2
	C616.3,350.1,616,350.3,615.1,350z"/>
<path class="st0" d="M572.4,350c-0.9,0.3-1.2,0-1.2-0.8c0-2,0-3.9,0-5.8c0.1-0.3,0.3-0.6,0.6-0.9c0.2,0.2,0.4,0.5,0.5,0.8
	C572.4,345.5,572.4,347.8,572.4,350z"/>
<path class="st0" d="M572.4,340v1.5c-0.4,0-0.7-0.1-1.1-0.3c-0.2-0.3-0.2-0.6,0-0.9C571.6,340.1,572,340,572.4,340z"/>
</svg>
